<?xml version="1.0" encoding="utf-8"?>
<!-- Generator: Adobe Illustrator 16.0.0, SVG Export Plug-In . SVG Version: 6.00 Build 0)  -->
<!DOCTYPE svg PUBLIC "-//W3C//DTD SVG 1.1//EN" "http://www.w3.org/Graphics/SVG/1.1/DTD/svg11.dtd">
<svg version="1.1" id="Layer_1" xmlns="http://www.w3.org/2000/svg" xmlns:xlink="http://www.w3.org/1999/xlink" x="0px" y="0px"
	 width="45.906px" height="60px" viewBox="0 0 45.906 60" enable-background="new 0 0 45.906 60" xml:space="preserve">
<g>
	<g>
		<g>
			<path fill-rule="evenodd" clip-rule="evenodd" fill="#fff" d="M30,34H16c-0.553,0-1,0.448-1,1s0.447,1,1,1h14
				c0.552,0,1-0.448,1-1S30.552,34,30,34z M30,20H16c-0.553,0-1,0.448-1,1s0.447,1,1,1h14c0.552,0,1-0.448,1-1S30.552,20,30,20z
				 M30,27H16c-0.553,0-1,0.448-1,1s0.447,1,1,1h14c0.552,0,1-0.448,1-1S30.552,27,30,27z M36,6h-7c0,2.209-1.791,4-4,4H13
				c-2.209,0-4-1.791-4-4H2C0.896,6,0,6.896,0,8v44c0,1.104,0.896,2,2,2h24.425C26.154,53.045,26,52.042,26,51
				c0-0.337,0.021-0.67,0.05-1H4V15h30v25.425C34.955,40.154,35.958,40,37,40c0.337,0,0.67,0.021,1,0.05V8C38,6.896,37.104,6,36,6z
				 M30,41H16c-0.553,0-1,0.448-1,1s0.447,1,1,1h13.466c0.464-0.437,0.961-0.837,1.496-1.189C30.87,41.353,30.485,41,30,41z
				 M13.721,25.189c-0.34-0.283-0.862-0.253-1.164,0.064L9.779,28.17l-1.45-1.083c-0.355-0.266-0.875-0.212-1.159,0.121
				c-0.285,0.332-0.227,0.816,0.128,1.082l2.061,1.539c0.152,0.113,0.334,0.169,0.515,0.169c0.228,0,0.454-0.088,0.617-0.258
				l3.298-3.463C14.092,25.958,14.062,25.472,13.721,25.189z M13.721,18.189c-0.34-0.283-0.862-0.253-1.164,0.064L9.779,21.17
				l-1.45-1.083c-0.355-0.266-0.875-0.212-1.159,0.121c-0.285,0.332-0.227,0.816,0.128,1.082l2.061,1.539
				c0.152,0.113,0.334,0.169,0.515,0.169c0.228,0,0.454-0.088,0.617-0.258l3.298-3.463C14.092,18.958,14.062,18.472,13.721,18.189z
				 M13.721,32.189c-0.34-0.283-0.862-0.253-1.164,0.064L9.779,35.17l-1.45-1.083c-0.355-0.266-0.875-0.212-1.159,0.121
				c-0.285,0.332-0.227,0.816,0.128,1.082l2.061,1.539c0.152,0.113,0.334,0.169,0.515,0.169c0.228,0,0.454-0.088,0.617-0.258
				l3.298-3.463C14.092,32.958,14.062,32.472,13.721,32.189z M12.558,39.253L9.779,42.17l-1.45-1.083
				c-0.355-0.266-0.875-0.212-1.159,0.121c-0.285,0.332-0.227,0.816,0.128,1.082l2.061,1.539c0.152,0.113,0.334,0.169,0.515,0.169
				c0.228,0,0.454-0.088,0.617-0.258l3.298-3.463c0.303-0.318,0.272-0.804-0.068-1.087S12.859,38.936,12.558,39.253z"/>
		</g>
	</g>
	<g>
		<g>
			<path fill-rule="evenodd" clip-rule="evenodd" fill="#dd003f" d="M24.906,4h-3V2c0-1.104-0.896-2-2-2h-2c-1.105,0-2,0.896-2,2v2
				h-3c-1.105,0-2,0.896-2,2s0.895,2,2,2h12c1.104,0,2-0.896,2-2S26.011,4,24.906,4z M19.906,4c0,0.552-0.448,1-1,1
				c-0.553,0-1-0.448-1-1V3c0-0.552,0.447-1,1-1c0.552,0,1,0.448,1,1V4z M36.906,42c-4.971,0-9,4.029-9,9s4.029,9,9,9
				c4.97,0,9-4.029,9-9S41.876,42,36.906,42z M41.607,49.786l-4.69,4.849c-0.231,0.239-0.553,0.361-0.877,0.361
				c-0.258,0-0.517-0.077-0.732-0.236l-2.931-2.155c-0.505-0.372-0.588-1.049-0.183-1.514c0.404-0.465,1.143-0.541,1.648-0.168
				l2.062,1.516l3.951-4.084c0.43-0.444,1.171-0.485,1.655-0.089C41.994,48.66,42.038,49.341,41.607,49.786z"/>
		</g>
	</g>
</g>
</svg>
